<svg width="30" height="30" viewBox="0 0 30 30" fill="none" xmlns="http://www.w3.org/2000/svg">
<path d="M1.9685 20.593C1.26432 18.9799 0.895064 17.3073 0.825454 15.6485L9.65348 5.69303L14.1292 1.7325L1.9685 20.593ZM13.115 1.01637C10.4085 3.87949 5.99635 8.24461 0.938423 13.1912C1.75036 7.17668 6.41383 1.86609 13.115 1.01637ZM13.9752 29.0704C14.3003 19.9859 17.0513 10.6375 21.1677 2.34006C26.7142 5.09197 30.0612 11.3816 28.8205 17.7025C23.8158 21.2094 19.1044 26.7611 17.3953 28.8908C16.2766 29.0804 15.1394 29.1578 13.9752 29.0704ZM30 15C30 3.49582 17.4605 -3.73336 7.48305 2.01873C-2.49435 7.77082 -2.49435 22.2292 7.48305 27.9813C17.4605 33.7334 30 26.5042 30 15Z" fill="black"/>
</svg>
