<svg width="30" height="30" viewBox="0 0 30 30" fill="none" xmlns="http://www.w3.org/2000/svg">
<path d="M15 18.3276L17.6757 19.9735C17.9103 20.1216 18.1503 20.1097 18.3957 19.9378C18.6411 19.767 18.734 19.5368 18.6746 19.247L17.9562 16.1886L20.34 14.1389C20.567 13.9378 20.6319 13.7049 20.5346 13.44C20.4373 13.1741 20.2411 13.0281 19.9459 13.0022L16.8373 12.7168L15.6049 9.86109C15.4903 9.59946 15.2886 9.46865 15 9.46865C14.7114 9.46865 14.5097 9.59946 14.3951 9.86109L13.1627 12.7168L10.0541 13.0005C9.75892 13.0276 9.56271 13.1735 9.46541 13.4384C9.36811 13.7032 9.43298 13.9368 9.66 14.1389L12.0438 16.1886L11.327 19.247C11.2665 19.5368 11.3584 19.767 11.6027 19.9378C11.8492 20.1097 12.0897 20.1216 12.3243 19.9735L15 18.3276ZM10.2535 26.3513H6.2692C5.54271 26.3513 4.92433 26.0962 4.41406 25.5859C3.90379 25.0757 3.64866 24.4578 3.64866 23.7324V19.7465L0.74596 16.834C0.489744 16.5713 0.301095 16.2805 0.180014 15.9616C0.0589333 15.6427 -0.00106673 15.3222 1.43506e-05 15C0.00109543 14.6778 0.0616359 14.3573 0.181636 14.0384C0.301636 13.7195 0.489203 13.4286 0.744338 13.1659L3.64866 10.2535V6.2692C3.64866 5.54271 3.90379 4.92433 4.41406 4.41406C4.92433 3.90379 5.54271 3.64866 6.2692 3.64866H10.2535L13.1659 0.74596C13.4286 0.489744 13.7195 0.301095 14.0384 0.180014C14.3573 0.0589333 14.6778 -0.00106673 15 1.43506e-05C15.3222 0.00109543 15.6427 0.0616359 15.9616 0.181636C16.2805 0.301636 16.5713 0.489203 16.834 0.744338L19.7465 3.64866H23.7324C24.4567 3.64866 25.0746 3.90379 25.5859 4.41406C26.0962 4.92433 26.3513 5.54271 26.3513 6.2692V10.2535L29.254 13.1659C29.5103 13.4286 29.6989 13.7195 29.82 14.0384C29.9411 14.3573 30.0011 14.6778 30 15C29.9989 15.3222 29.9389 15.6427 29.82 15.9616C29.7011 16.2805 29.513 16.5713 29.2557 16.834L26.3513 19.7465V23.7324C26.3513 24.4567 26.0962 25.0746 25.5859 25.5859C25.0757 26.0962 24.4578 26.3513 23.7324 26.3513H19.7465L16.834 29.254C16.5713 29.5103 16.2805 29.6989 15.9616 29.82C15.6427 29.9411 15.3222 30.0011 15 30C14.6778 29.9989 14.3573 29.9389 14.0384 29.82C13.7195 29.7011 13.4286 29.513 13.1659 29.2557L10.2535 26.3513ZM10.9459 24.7297L14.2832 28.067C14.4703 28.254 14.7092 28.3476 15 28.3476C15.2908 28.3476 15.5297 28.254 15.7168 28.067L19.054 24.7297H23.7324C24.0232 24.7297 24.2621 24.6362 24.4492 24.4492C24.6362 24.2621 24.7297 24.0232 24.7297 23.7324V19.054L28.067 15.7168C28.254 15.5297 28.3476 15.2908 28.3476 15C28.3476 14.7092 28.254 14.4703 28.067 14.2832L24.7297 10.9459V6.2692C24.7297 5.97731 24.6362 5.73785 24.4492 5.55082C24.2621 5.36379 24.0232 5.27028 23.7324 5.27028H19.054L15.7168 1.93299C15.5308 1.74704 15.2919 1.65407 15 1.65407C14.7081 1.65407 14.4692 1.74758 14.2832 1.93461L10.9459 5.27028H6.2692C5.97731 5.27028 5.73785 5.36379 5.55082 5.55082C5.36379 5.73785 5.27028 5.97731 5.27028 6.2692V10.9459L1.93299 14.2832C1.74596 14.4703 1.65245 14.7092 1.65245 15C1.65245 15.2908 1.74596 15.5297 1.93299 15.7168L5.27028 19.054V23.7324C5.27028 24.0232 5.36379 24.2621 5.55082 24.4492C5.73785 24.6362 5.97731 24.7297 6.2692 24.7297H10.9459Z" fill="black"/>
</svg>
