<svg width="14" height="16" viewBox="0 0 14 16" fill="none" xmlns="http://www.w3.org/2000/svg">
<path d="M6.5 10.54L9.5 7.54004M9.5 7.54004L6.5 4.54004M9.5 7.54004H0.5" stroke="white" stroke-linecap="round" stroke-linejoin="round"/>
<path d="M1.5 5.54002V2.53202C1.5 2.00297 1.70961 1.49547 2.08296 1.12062C2.4563 0.74578 2.96295 0.534132 3.492 0.532016L11.444 0.500016C11.7067 0.498964 11.9671 0.549687 12.2102 0.649287C12.4533 0.748888 12.6744 0.895414 12.8609 1.08049C13.0474 1.26557 13.1956 1.48558 13.297 1.72795C13.3984 1.97031 13.4511 2.23029 13.452 2.49302L13.492 12.522C13.4931 12.7847 13.4424 13.0449 13.3428 13.288C13.2433 13.531 13.0968 13.7521 12.9119 13.9386C12.7269 14.125 12.507 14.2732 12.2648 14.3747C12.0225 14.4762 11.7626 14.529 11.5 14.53H3.5C2.96957 14.53 2.46086 14.3193 2.08579 13.9442C1.71071 13.5692 1.5 13.0604 1.5 12.53V9.54002" stroke="white" stroke-linecap="round" stroke-linejoin="round"/>
</svg>
