<svg width="27" height="30" viewBox="0 0 27 30" fill="none" xmlns="http://www.w3.org/2000/svg">
<path fill-rule="evenodd" clip-rule="evenodd" d="M14.5733 1.44456C14.5733 1.06144 14.4211 0.694009 14.1502 0.423101C13.8793 0.152194 13.5119 0 13.1287 0C12.7456 0 12.3782 0.152194 12.1073 0.423101C11.8364 0.694009 11.6842 1.06144 11.6842 1.44456V12.4251L2.17514 6.93581C2.01079 6.83946 1.829 6.77657 1.64025 6.75076C1.4515 6.72495 1.25951 6.73674 1.07533 6.78543C0.891146 6.83413 0.718417 6.91877 0.567083 7.03449C0.415749 7.15021 0.288799 7.29473 0.193543 7.45971C0.0982867 7.62469 0.0366056 7.80689 0.0120501 7.99581C-0.0125054 8.18473 0.000550176 8.37664 0.0504651 8.56049C0.10038 8.74435 0.186168 8.91651 0.302891 9.06707C0.419614 9.21764 0.564965 9.34362 0.730578 9.43778L10.2396 14.9271L0.730578 20.4164C0.39854 20.608 0.156197 20.9236 0.0568647 21.2938C-0.042468 21.6641 0.0093456 22.0586 0.200906 22.3907C0.392466 22.7227 0.708082 22.965 1.07832 23.0644C1.44856 23.1637 1.8431 23.1119 2.17514 22.9203L11.6842 17.4291V28.4097C11.6842 28.7928 11.8364 29.1602 12.1073 29.4311C12.3782 29.702 12.7456 29.8542 13.1287 29.8542C13.5119 29.8542 13.8793 29.702 14.1502 29.4311C14.4211 29.1602 14.5733 28.7928 14.5733 28.4097V17.4291L24.0824 22.9184C24.414 23.1069 24.8067 23.1567 25.1748 23.0567C25.543 22.9568 25.8566 22.7153 26.0473 22.3849C26.2381 22.0546 26.2904 21.6622 26.1929 21.2934C26.0954 20.9246 25.856 20.6094 25.5269 20.4164L16.0179 14.9271L25.5269 9.43778C25.8589 9.24622 26.1013 8.93061 26.2006 8.56037C26.3 8.19013 26.2481 7.79559 26.0566 7.46355C25.865 7.13152 25.5494 6.88917 25.1792 6.78984C24.8089 6.69051 24.4144 6.74232 24.0824 6.93388L14.5733 12.4251V1.44456Z" fill="black"/>
</svg>
